# xmcd CD database file
#
# Track frame offsets:
#	182
#	21785
#	54300
#	78690
#	100155
#	124470
#	148207
#	170745
#	191170
#	207165
#	232425
#	254665
#
# Disc length: 3814 seconds
#
# Revision: 4
# Processed by: cddbd v1.4PL0 Copyright (c) Steve Scherf et al.
# Submitted via: NeoAudio 1.5.7
#
DISCID=be0ee40c
DTITLE=La Sonora Ponceña - Soul Of Puerto Rico
DYEAR=1993
DGENRE=Salsa
TTITLE0=Cancion
TTITLE1=No Bebo Mas
TTITLE2=Abanacue
TTITLE3=Saoco
TTITLE4=La Montaña Del Oso
TTITLE5=A Cali
TTITLE6=Sigo Pensando En Ti
TTITLE7=Lo Que El Viento Se Llevo
TTITLE8=La Maleta
TTITLE9=Lo Que El Viento Se Llevo (2)
TTITLE10=El Pio Pio
TTITLE11=Borinquen
EXTD=YEAR: 1993
EXTT0=
EXTT1=
EXTT2=
EXTT3=
EXTT4=
EXTT5=
EXTT6=
EXTT7=
EXTT8=
EXTT9=
EXTT10=
EXTT11=
PLAYORDER=
